<mxfile host="app.diagrams.net" modified="2022-03-12T15:47:35.442Z" agent="5.0 (Windows NT 10.0; Win64; x64) AppleWebKit/537.36 (KHTML, like Gecko) Chrome/99.0.4844.51 Safari/537.36" etag="eouZwEI-uTme0HsNVj3w" version="17.1.2" type="github">
  <diagram id="SZJP3C46OTXvzqWA6zbM" name="Page-1">
    <mxGraphModel dx="1038" dy="547" grid="1" gridSize="10" guides="1" tooltips="1" connect="1" arrows="1" fold="1" page="1" pageScale="1" pageWidth="850" pageHeight="1100" math="0" shadow="0">
      <root>
        <mxCell id="0" />
        <mxCell id="1" parent="0" />
        <mxCell id="GMbj9UzoKoTQGmTwqN7a-8" style="edgeStyle=orthogonalEdgeStyle;rounded=0;orthogonalLoop=1;jettySize=auto;html=1;entryX=0.008;entryY=0.537;entryDx=0;entryDy=0;entryPerimeter=0;strokeColor=default;endArrow=none;endFill=0;" edge="1" parent="1" target="GMbj9UzoKoTQGmTwqN7a-2">
          <mxGeometry relative="1" as="geometry">
            <mxPoint x="620" y="293" as="sourcePoint" />
          </mxGeometry>
        </mxCell>
        <mxCell id="GMbj9UzoKoTQGmTwqN7a-1" value="&lt;b&gt;&lt;font style=&quot;font-size: 14px&quot;&gt;Django Web application&lt;/font&gt;&lt;/b&gt;" style="shape=image;html=1;verticalAlign=top;verticalLabelPosition=bottom;labelBackgroundColor=#ffffff;imageAspect=0;aspect=fixed;image=https://cdn2.iconfinder.com/data/icons/boxicons-logos/24/bxl-django-128.png" vertex="1" parent="1">
          <mxGeometry x="540" y="255" width="85" height="85" as="geometry" />
        </mxCell>
        <mxCell id="GMbj9UzoKoTQGmTwqN7a-2" value="&lt;b&gt;&lt;font style=&quot;font-size: 14px&quot;&gt;PostgreSQL&lt;/font&gt;&lt;/b&gt;" style="aspect=fixed;html=1;points=[];align=center;image;fontSize=12;image=img/lib/azure2/databases/Azure_Database_PostgreSQL_Server.svg;" vertex="1" parent="1">
          <mxGeometry x="760" y="258.22" width="48" height="64" as="geometry" />
        </mxCell>
        <mxCell id="GMbj9UzoKoTQGmTwqN7a-4" value="&lt;b&gt;&lt;font style=&quot;font-size: 13px&quot;&gt;HTTP/REST&lt;/font&gt;&lt;/b&gt;" style="edgeStyle=orthogonalEdgeStyle;rounded=0;orthogonalLoop=1;jettySize=auto;html=1;entryX=0;entryY=0.25;entryDx=0;entryDy=0;" edge="1" parent="1" target="GMbj9UzoKoTQGmTwqN7a-1">
          <mxGeometry relative="1" as="geometry">
            <mxPoint x="200" y="277" as="sourcePoint" />
          </mxGeometry>
        </mxCell>
        <mxCell id="GMbj9UzoKoTQGmTwqN7a-5" style="edgeStyle=orthogonalEdgeStyle;rounded=0;orthogonalLoop=1;jettySize=auto;html=1;" edge="1" parent="1" target="GMbj9UzoKoTQGmTwqN7a-1">
          <mxGeometry relative="1" as="geometry">
            <mxPoint x="200" y="298" as="sourcePoint" />
          </mxGeometry>
        </mxCell>
        <mxCell id="GMbj9UzoKoTQGmTwqN7a-3" value="&lt;b&gt;&lt;font style=&quot;font-size: 14px&quot;&gt;Client&lt;/font&gt;&lt;/b&gt;" style="aspect=fixed;perimeter=ellipsePerimeter;html=1;align=center;shadow=0;dashed=0;spacingTop=3;image;image=img/lib/active_directory/laptop_client.svg;" vertex="1" parent="1">
          <mxGeometry x="120" y="238.89" width="75" height="83.33" as="geometry" />
        </mxCell>
        <mxCell id="GMbj9UzoKoTQGmTwqN7a-10" style="rounded=0;orthogonalLoop=1;jettySize=auto;html=1;exitX=0.445;exitY=0.932;exitDx=0;exitDy=0;exitPerimeter=0;fontSize=15;endArrow=none;endFill=0;strokeColor=default;" edge="1" parent="1" source="GMbj9UzoKoTQGmTwqN7a-9" target="GMbj9UzoKoTQGmTwqN7a-2">
          <mxGeometry relative="1" as="geometry" />
        </mxCell>
        <mxCell id="GMbj9UzoKoTQGmTwqN7a-9" value="&lt;b&gt;&lt;font style=&quot;font-size: 15px&quot;&gt;PG Admin&lt;/font&gt;&lt;/b&gt;" style="sketch=0;pointerEvents=1;shadow=0;dashed=0;html=1;strokeColor=none;labelPosition=center;verticalLabelPosition=bottom;verticalAlign=top;align=center;fillColor=#515151;shape=mxgraph.mscae.system_center.admin_console;fontSize=13;" vertex="1" parent="1">
          <mxGeometry x="751.5" y="50" width="65" height="50" as="geometry" />
        </mxCell>
      </root>
    </mxGraphModel>
  </diagram>
</mxfile>
